<svg width="36" height="36" viewBox="0 0 36 36" fill="none" xmlns="http://www.w3.org/2000/svg">
<path fill-rule="evenodd" clip-rule="evenodd" d="M18 35C27.3888 35 35 27.3888 35 18C35 8.61116 27.3888 1 18 1C8.61116 1 1 8.61116 1 18C1 27.3888 8.61116 35 18 35Z" stroke="#E5E5E5"/>
<path d="M8.2231 17.9619C8.10384 14.7604 10.8543 11.8019 13.9975 11.7635C15.5995 11.6242 17.1581 12.2585 18.3705 13.2929C17.8732 13.8505 17.3671 14.4015 16.8266 14.9174C15.7593 14.2563 14.4743 13.7525 13.2269 14.1999C11.215 14.784 9.99652 17.206 10.7411 19.2127C11.3576 21.3085 13.858 22.4587 15.8175 21.5783C16.8322 21.2079 17.5012 20.2534 17.7947 19.2277C16.6318 19.2041 15.4687 19.2189 14.3058 19.1861C14.3029 18.4807 14.3 17.778 14.3029 17.0726C16.2422 17.0696 18.1843 17.0637 20.1265 17.0814C20.2458 18.8098 19.9957 20.6595 18.8936 22.0467C17.3845 24.0268 14.5964 24.608 12.3283 23.8312C9.92122 23.0251 8.17071 20.5527 8.2231 17.9619Z" fill="#666666"/>
<path d="M23.9066 15.2938C24.4824 15.2938 25.0579 15.2938 25.6363 15.2938C25.6395 15.8838 25.645 16.4768 25.6482 17.0665C26.2266 17.0724 26.8082 17.0753 27.3868 17.0783C27.3868 17.6683 27.3868 18.255 27.3868 18.845C26.8084 18.848 26.2268 18.8509 25.6482 18.8539C25.6424 19.4468 25.6395 20.0366 25.6363 20.6295C25.0579 20.6265 24.479 20.6295 23.9034 20.6295C23.8979 20.0366 23.8979 19.4468 23.8919 18.8568C23.3134 18.8507 22.7319 18.848 22.1532 18.8448C22.1532 18.2548 22.1532 17.668 22.1532 17.078C22.7319 17.0751 23.3106 17.0721 23.8919 17.0662C23.8948 16.4768 23.9006 15.8838 23.9066 15.2938Z" fill="#666666"/>
</svg>
