<svg width="36" height="36" viewBox="0 0 36 36" fill="none" xmlns="http://www.w3.org/2000/svg">
<path fill-rule="evenodd" clip-rule="evenodd" d="M18 35C27.3888 35 35 27.3888 35 18C35 8.61116 27.3888 1 18 1C8.61116 1 1 8.61116 1 18C1 27.3888 8.61116 35 18 35Z" stroke="#E5E5E5"/>
<path d="M22.8088 11.8004C21.7556 10.7738 20.298 10.2084 18.7046 10.2084C16.2706 10.2084 14.7736 11.2214 13.9463 12.0712C12.9268 13.1184 12.3422 14.5089 12.3422 15.8863C12.3422 17.6156 13.0547 18.943 14.2477 19.4368C14.3278 19.4701 14.4084 19.4869 14.4874 19.4869C14.7391 19.4869 14.9385 19.3197 15.0076 19.0514C15.0479 18.8976 15.1412 18.5179 15.1818 18.3531C15.2686 18.0277 15.1985 17.8712 15.0091 17.6445C14.664 17.23 14.5033 16.7398 14.5033 16.1018C14.5033 14.2069 15.893 12.1929 18.4688 12.1929C20.5125 12.1929 21.7821 13.3723 21.7821 15.2708C21.7821 16.4688 21.5279 17.5782 21.0663 18.3949C20.7455 18.9624 20.1814 19.6388 19.3154 19.6388C18.941 19.6388 18.6046 19.4827 18.3923 19.2104C18.1918 18.953 18.1257 18.6205 18.2064 18.2739C18.2975 17.8824 18.4217 17.474 18.5419 17.0791C18.7612 16.358 18.9684 15.6769 18.9684 15.1335C18.9684 14.204 18.4056 13.5794 17.5681 13.5794C16.5037 13.5794 15.6698 14.6771 15.6698 16.0783C15.6698 16.7656 15.8497 17.2795 15.9311 17.4769C15.797 18.0538 15.0001 21.4831 14.849 22.1298C14.7616 22.5073 14.235 25.489 15.1065 25.7267C16.0857 25.9938 16.9609 23.0899 17.05 22.7618C17.1222 22.4949 17.3749 21.4858 17.5297 20.8655C18.0024 21.3278 18.7634 21.6403 19.504 21.6403C20.9001 21.6403 22.1556 21.0024 23.0394 19.8443C23.8965 18.721 24.3685 17.1553 24.3685 15.436C24.3685 14.0918 23.8 12.7666 22.8088 11.8004Z" fill="#666666"/>
</svg>
